<svg xmlns="http://www.w3.org/2000/svg" aria-hidden="true" style="position:absolute;width:0;height:0;overflow:hidden">
  <defs>
    <symbol id="icon-youtube" viewBox="0 0 43 32">
      <path fill="#e42f08" d="M41.724 5.212c-.242-.947-.718-1.811-1.377-2.505s-1.481-1.193-2.382-1.448C34.647.315 21.312.315 21.312.315s-13.334 0-16.653.944c-.901.255-1.723.754-2.382 1.448S1.142 4.265.9 5.212C.28 8.771-.02 12.382.002 16A60.713 60.713 0 0 0 .9 26.788c.243.948.718 1.811 1.377 2.505s1.481 1.193 2.382 1.448c3.318.944 16.653.944 16.653.944s13.334 0 16.653-.944c.901-.255 1.723-.755 2.382-1.448s1.135-1.558 1.377-2.505c.62-3.559.92-7.171.898-10.788a60.806 60.806 0 0 0-.898-10.788zM17.05 22.722V9.277L28.116 16 17.05 22.722z" style="fill:var(--color1, #e42f08)"/>
    </symbol>
    <symbol id="icon-twitter" viewBox="0 0 38 32">
      <path fill="#21a6df" d="M38.401 3.945c-1.411.617-2.946 1.062-4.527 1.235A7.934 7.934 0 0 0 37.331.783a15.368 15.368 0 0 1-4.988 1.927c-.736-.798-1.625-1.434-2.613-1.867S27.676.187 26.599.189c-4.356 0-7.86 3.583-7.86 7.981 0 .617.074 1.235.194 1.829C12.41 9.653 6.592 6.49 2.725 1.649a8.004 8.004 0 0 0-1.069 4.028 8.018 8.018 0 0 0 3.503 6.648 7.847 7.847 0 0 1-3.554-1.015v.098c0 3.878 2.701 7.092 6.302 7.831a8.218 8.218 0 0 1-2.07.271c-.512 0-.996-.052-1.484-.122.996 3.162 3.895 5.459 7.348 5.534a15.61 15.61 0 0 1-9.759 3.41 15.8 15.8 0 0 1-1.899-.098 22.022 22.022 0 0 0 12.073 3.579c14.456 0 22.367-12.154 22.367-22.703 0-.346 0-.692-.023-1.039a17.056 17.056 0 0 0 3.941-4.126z" style="fill:var(--color2, #21a6df)"/>
    </symbol>
    <symbol id="icon-instagram" viewBox="0 0 32 32">
      <path fill="#e61f5a" d="M16.002 7.797c-4.54 0-8.204 3.664-8.204 8.204s3.664 8.204 8.204 8.204 8.204-3.664 8.204-8.204a8.192 8.192 0 0 0-8.204-8.204zm0 13.536c-2.936 0-5.332-2.396-5.332-5.332s2.396-5.332 5.332-5.332 5.332 2.396 5.332 5.332a5.343 5.343 0 0 1-5.332 5.332zm8.54-15.784c-1.06 0-1.916.856-1.916 1.916s.856 1.916 1.916 1.916 1.916-.852 1.916-1.916a1.925 1.925 0 0 0-.56-1.356 1.906 1.906 0 0 0-1.356-.56zm7.452 10.452c0-2.208.02-4.396-.104-6.6-.124-2.56-.708-4.832-2.58-6.704C27.434.821 25.166.241 22.606.117c-2.208-.124-4.396-.104-6.6-.104-2.208 0-4.396-.02-6.6.104-2.56.124-4.832.708-6.704 2.58C.826 4.573.246 6.841.122 9.401c-.124 2.208-.104 4.396-.104 6.6s-.02 4.396.104 6.6c.124 2.56.708 4.832 2.58 6.704 1.876 1.876 4.144 2.456 6.704 2.58 2.208.124 4.396.104 6.6.104 2.208 0 4.396.02 6.6-.104 2.56-.124 4.832-.708 6.704-2.58 1.876-1.876 2.456-4.144 2.58-6.704.128-2.204.104-4.392.104-6.6zm-3.52 9.432a5.083 5.083 0 0 1-1.208 1.832 5.117 5.117 0 0 1-1.832 1.208c-2.104.836-7.1.648-9.432.648s-7.332.188-9.436-.644a5.083 5.083 0 0 1-1.832-1.208 5.117 5.117 0 0 1-1.208-1.832c-.832-2.108-.644-7.104-.644-9.436s-.188-7.332.644-9.436c.292-.728.644-1.272 1.208-1.832s1.104-.916 1.832-1.208c2.104-.832 7.104-.644 9.436-.644s7.332-.188 9.436.644a5.083 5.083 0 0 1 1.832 1.208 5.117 5.117 0 0 1 1.208 1.832c.832 2.104.644 7.104.644 9.436s.188 7.328-.648 9.432z" style="fill:var(--color3, #e61f5a)"/>
    </symbol>
    <symbol id="icon-facebook" viewBox="0 0 32 32">
      <path fill="#335bf5" d="M30.72 0H1.28C.572 0 0 .572 0 1.28v29.44C0 31.428.572 32 1.28 32h29.44c.708 0 1.28-.572 1.28-1.28V1.28C32 .572 31.428 0 30.72 0zm-3.696 9.34h-2.556c-2.004 0-2.392.952-2.392 2.352v3.084h4.784l-.624 4.828h-4.16V32h-4.988V19.608h-4.172v-4.832h4.172v-3.56c0-4.132 2.524-6.384 6.212-6.384 1.768 0 3.284.132 3.728.192V9.34h-.004z" style="fill:var(--color4, #335bf5)"/>
    </symbol>
    <symbol id="icon-plane" viewBox="0 0 32 32">
      <path  d="M31.266.961c-.173-.179-.392-.303-.63-.357s-.487-.037-.716.051L1.716 11.321c-.243.096-.453.267-.6.489a1.376 1.376 0 0 0 0 1.514c.148.222.357.393.6.489l12.307 5.12 4.923 12.799c.093.242.251.45.456.599s.448.233.698.24c.259-.005.51-.093.721-.25s.37-.377.458-.63L31.535 2.359c.087-.236.108-.493.061-.741s-.162-.477-.33-.659zM20.1 27.506l-3.577-9.333 6.141-6.386-1.808-1.88-6.192 6.44-8.923-3.773 22.473-8.44-8.115 23.372z"/>
    </symbol>
    <symbol id="icon-point" viewBox="0 0 32 32">
      <path  d="M13.111 18.667c3.554 0 6.444-2.791 6.444-6.222s-2.89-6.222-6.444-6.222-6.444 2.791-6.444 6.222 2.89 6.222 6.444 6.222zm0-9.334c1.777 0 3.222 1.395 3.222 3.111s-1.445 3.111-3.222 3.111-3.222-1.395-3.222-3.111 1.445-3.111 3.222-3.111z"/>
      <path  d="M12.193 31.262a1.581 1.581 0 0 0 1.836 0c.481-.339 11.794-8.479 11.748-18.64C25.777 5.662 20.094 0 13.11 0S.443 5.663.443 12.614C.397 22.783 11.71 30.923 12.191 31.262zm.918-28.106c5.239 0 9.5 4.246 9.5 9.475.033 7.002-6.948 13.29-9.5 15.352-2.551-2.064-9.533-8.353-9.5-15.36 0-5.221 4.261-9.467 9.5-9.467z" />
    </symbol>
    <symbol id="icon-phone" viewBox="0 0 32 32">
      <path  d="M25.302 17.331a1.693 1.693 0 0 0-1.834-.365c-.204.084-.39.209-.546.365l-2.684 2.684c-1.244-.37-3.566-1.212-5.038-2.684s-2.313-3.793-2.684-5.038L15.2 9.609a1.678 1.678 0 0 0 .365-1.834 1.678 1.678 0 0 0-.365-.546L8.465.494A1.678 1.678 0 0 0 6.631.129c-.204.084-.39.209-.546.365L1.519 5.06c-.64.64-1 1.519-.987 2.416.039 2.398.673 10.725 7.237 17.289s14.891 7.196 17.29 7.237h.047c.889 0 1.729-.35 2.366-.987l4.566-4.566a1.693 1.693 0 0 0 .365-1.834 1.678 1.678 0 0 0-.365-.546l-6.735-6.737zm-.214 11.301c-2.101-.035-9.291-.599-14.94-6.25C4.481 16.715 3.932 9.5 3.898 7.441l3.376-3.376 4.354 4.354-2.177 2.177a1.685 1.685 0 0 0-.458 1.536c.04.194 1.029 4.785 3.824 7.58s7.387 3.783 7.58 3.824a1.663 1.663 0 0 0 1.535-.456l2.179-2.177 4.354 4.354-3.378 3.376z"/>
    </symbol>
    <symbol id="icon-reddit-alien" viewBox="0 0 34 32">
      <path fill="#737373" d="M29.776 12.345a3.72 3.72 0 0 0-2.653 1.118c-2.499-1.736-5.865-2.854-9.596-2.973l1.939-8.773 6.173 1.392a2.755 2.755 0 0 0 2.744 2.756c1.54 0 2.779-1.272 2.779-2.791S29.93.283 28.383.283c-1.078 0-2.009.654-2.471 1.546L19.095.311c-.343-.091-.679.155-.77.499l-2.128 9.672c-3.702.155-7.034 1.272-9.54 3.009a3.713 3.713 0 0 0-2.688-1.146c-3.891 0-5.165 5.244-1.603 7.036a7.899 7.899 0 0 0-.182 1.736c0 5.891 6.607 10.663 14.719 10.663 8.147 0 14.754-4.773 14.754-10.663a6.73 6.73 0 0 0-.217-1.764c3.492-1.8 2.205-7.008-1.666-7.008zm-21.76 7.409a2.774 2.774 0 0 1 2.779-2.791c1.512 0 2.744 1.237 2.744 2.791a2.755 2.755 0 0 1-2.744 2.756 2.762 2.762 0 0 1-2.779-2.756zm14.999 6.572c-2.548 2.559-9.736 2.559-12.283 0-.28-.246-.28-.682 0-.963a.67.67 0 0 1 .924 0c1.946 2.003 8.399 2.039 10.428 0a.67.67 0 0 1 .924 0c.287.281.287.717.007.963zm-.056-3.81a2.754 2.754 0 0 1-2.744-2.756c0-1.546 1.232-2.791 2.744-2.791a2.774 2.774 0 1 1 0 5.547z" style="fill:var(--color7, #737373)"/>
    </symbol>
    <symbol id="icon-aws" viewBox="0 0 53 32">
      <path fill="#737373" d="M15.181 11.677c-.059 1.848.872 2.666.895 3.186a.657.657 0 0 1-.337.511l-1.053.731a.883.883 0 0 1-.463.157c-.035-.002-.674.149-1.685-2.089-.617.764-1.402 1.377-2.295 1.794s-1.87.625-2.857.609c-1.34.073-4.97-.754-4.783-4.586-.131-3.123 2.803-5.063 5.836-4.899.584.002 1.777.03 3.866.512V6.329c.221-2.159-1.21-3.834-3.687-3.582-.197.001-1.596-.041-3.772.825-.606.276-.683.23-.885.23-.61 0-.359-1.752-.242-1.974C4.148 1.306 6.67.331 9.145.345a6.358 6.358 0 0 1 4.582 1.41 5.694 5.694 0 0 1 1.454 4.272l-.001 5.653zM8.07 14.319c2.668-.038 3.798-1.629 4.056-2.486.202-.82.169-1.339.169-2.235a14.242 14.242 0 0 0-3.255-.397c-1.247-.093-3.523.459-3.434 2.632-.102 1.37.915 2.562 2.465 2.487zM22.133 16.2c-.647.059-.948-.397-1.043-.846L16.992 1.921a3.06 3.06 0 0 1-.158-.7.375.375 0 0 1 .317-.428c.02-.003-.175 0 1.831 0 .722-.072.958.492 1.033.846l2.939 11.49 2.728-11.49c.044-.263.242-.903 1.053-.835h1.412c.179-.015.914-.041 1.043.846l2.75 11.637L34.974 1.65c.039-.178.224-.928 1.043-.846h1.623c.07-.011.506-.066.432.7-.035.151.281-.87-4.34 13.861-.095.45-.397.905-1.043.846h-1.538c-.9.094-1.029-.788-1.043-.877L27.379 4.146l-2.697 11.176c-.013.089-.142.971-1.043.877l-1.506.001zm22.503.459c-.484.001-2.791-.024-4.72-1.003a1.042 1.042 0 0 1-.642-.972v-.877c0-.689.51-.563.727-.48.826.331 1.356.582 2.371.783 3.016.614 4.342-.188 4.667-.365 1.082-.637 1.168-2.095.432-2.851-.862-.717-1.274-.744-4.372-1.713-.382-.105-3.596-1.11-3.603-4.272-.05-2.304 2.061-4.583 5.72-4.565 1.043-.001 3.82.337 4.572 1.274a.982.982 0 0 1 .158.574v.825c0 .362-.133.543-.401.543-.634-.07-1.76-.911-4.045-.877-.567-.029-3.282.074-3.16 2.037-.035 1.547 2.19 2.127 2.444 2.194 3 .895 4.003 1.043 5.194 2.413 1.41 1.815.65 3.941.358 4.523-1.57 3.059-5.63 2.81-5.699 2.808zm3.308 8.555c-5.762 4.22-14.127 6.466-21.269 6.466A38.787 38.787 0 0 1 .569 21.83c-.537-.481-.063-1.139.59-.773a52.789 52.789 0 0 0 26.074 6.863 52.223 52.223 0 0 0 19.879-4.043c.969-.408 1.791.636.833 1.336zm2.402-2.716c-.737-.94-4.878-.439-6.732-.219-.559.063-.653-.418-.147-.773 3.297-2.298 8.712-1.64 9.334-.867.621.773-.169 6.152-3.255 8.722-.474.397-.927.188-.717-.335.694-1.734 2.253-5.588 1.516-6.528z" style="fill:var(--color7, #737373)"/>
    </symbol>
    <symbol id="icon-stripe" viewBox="0 0 77 32">
      <path fill="#737373" d="m19.762 2.823-5.186 1.089-.024 16.859c0 3.114 2.371 5.126 5.521 5.126 1.749 0 3.03-.32 3.737-.698v-4.002c-.683.272-4.036 1.243-4.036-1.859v-7.482h4.036V7.381h-4.036l-.012-4.558zm10.671 6.109-.323-1.551h-4.599v18.138h5.306V13.313c1.258-1.634 3.377-1.314 4.06-1.101v-4.83c-.719-.249-3.198-.71-4.443 1.551zM41.488.372l-5.342 1.125v4.286l5.342-1.125V.372zM5.378 12.721c0-.817.695-1.137 1.809-1.148 1.617 0 3.677.485 5.294 1.35V7.974c-1.761-.687-3.521-.959-5.282-.959-4.312 0-7.186 2.226-7.186 5.943 0 5.825 8.084 4.878 8.084 7.388 0 .971-.85 1.291-2.036 1.291-1.761 0-4.036-.722-5.821-1.681v4.736a14.877 14.877 0 0 0 5.809 1.196c4.419 0 7.462-1.871 7.462-5.659 0-6.263-8.132-5.138-8.132-7.506zm71.274 3.942c0-5.387-2.635-9.637-7.689-9.637s-8.132 4.25-8.132 9.602c0 6.334 3.629 9.258 8.803 9.258 2.539 0 4.443-.568 5.893-1.362V20.57c-1.449.722-3.114 1.16-5.222 1.16-2.072 0-3.892-.722-4.132-3.185h10.408c.024-.272.072-1.373.072-1.883zm-10.528-1.989c0-2.368 1.473-3.362 2.803-3.362 1.305 0 2.695.995 2.695 3.362h-5.497zM52.602 7.026c-2.084 0-3.425.971-4.168 1.646l-.275-1.302h-4.683v24.247l5.318-1.113.012-5.943c.767.556 1.904 1.326 3.761 1.326 3.809 0 7.282-2.747 7.282-9.424.012-6.109-3.509-9.436-7.246-9.436zm-1.269 14.503c-1.246 0-1.988-.45-2.503-.995l-.036-7.814c.551-.604 1.317-1.042 2.539-1.042 1.94 0 3.282 2.155 3.282 4.901.012 2.83-1.305 4.949-3.282 4.949zm-15.175 3.99H41.5V7.381h-5.342v18.138z" style="fill:var(--color7, #737373)"/>
    </symbol>
    <symbol id="icon-pied-piper-hat" viewBox="0 0 44 32">
      <path fill="#737373" d="M43.52.062c-5.494 3.705-6.079 6.393-6.555 7.216-.456.843-.796 4.168-1.584 5.778-.796 1.631-3.686 2.917-4.495 3.456-.796.539-1.924 2.633-2.849 4.437-7.351-.304-11.383 2.682-17.626 6.469 1.999-.67 2.944-1.154 2.944-1.154 6.406-2.488 9.472-4.721 19.115-3.4.075 0 .129.041.19.055.265.152.36.477.211.746l-3.665 6.621a.813.813 0 0 1-.891.422c-8.622-1.645-15.429 1.196-21.685 1.286C1.639 32.07 0 29.679 0 29.568c0-.076.041-.117.116-.117 0 0 2.604 0 7.011-1.057 5.005-9.697 9.466-13.09 14.321-13.09 0 0 4.876 0 6.161 4.278 1.55-2.744 1.924-3.4 1.924-3.4.36-.65 2.38-5.336 5.875-9.773C38.91 1.986 41.555.887 43.52.064z" style="fill:var(--color7, #737373)"/>
    </symbol>
    <symbol id="icon-lyft" viewBox="0 0 46 32">
      <path fill="#737373" d="M.271.54h6.84v18.449c0 2.926 1.319 4.667 2.392 5.392-1.117.981-4.502 1.848-7.051-.248-1.495-1.238-2.18-3.297-2.18-5.215V.54zm42.722 15.337v-1.945h2.093V7.143h-2.295C41.903 3.05 38.289.009 33.972.009c-4.977 0-9.03 4.066-9.03 9.078v15.841c1.407.203 3.113-.027 4.546-1.238 1.503-1.238 2.181-3.288 2.181-5.215v-.592h3.411v-6.789h-3.411v-2.06c0-3.059 4.59-3.059 4.59 0v6.816c0 5.003 4.044 9.078 9.03 9.078v-6.762a2.293 2.293 0 0 1-2.295-2.289zM17.117 7.125v9.989c0 1.361-2.093 1.361-2.093 0V7.125H8.271v11.73c0 2.104.703 4.773 3.957 5.649 3.253.866 5.117-.937 5.117-.937-.185 1.185-1.275 2.06-3.069 2.236-1.363.141-3.095-.318-3.957-.69v6.214c2.207.663 4.528.866 6.823.415 4.141-.804 6.753-4.278 6.753-8.911V7.079h-6.779v.044z" style="fill:var(--color7, #737373)"/>
    </symbol>
    <symbol id="icon-hooli" viewBox="0 0 94 32">
      <path fill="#737373" d="m21.262 29.646 5.636.117a39.36 39.36 0 0 1-5.636-2.452v2.335zm8.49-.774v.773l-2.855.117c5.371 1.824 10.285 2.072 13.934 1.051-2.928.029-6.739-.379-11.08-1.941zM89.919 12.06c2.34 0 4.253-1.883 4.253-4.218s-1.898-3.576-4.253-3.576c-2.34 0-4.252 1.255-4.252 3.576s1.898 4.218 4.252 4.218zm-4.267 17.586h8.52V13.519h-8.52v16.127zm-10.845 0h8.52V1.143l-8.52 3.984v24.518zM70.246 12.22c-2.678-2.656-7.416-2.496-7.416-2.496s-4.753-.161-7.416 2.496c-2.678 2.656-2.472 4.947-2.472 7.677s-.206 5.006 2.472 7.662c2.678 2.656 7.416 2.496 7.416 2.496s4.753.161 7.416-2.496c2.678-2.656 2.472-4.933 2.472-7.662-.015-2.744.191-5.035-2.472-7.677zM64.39 22.713c0 .525-.265 1.824-1.574 1.824s-1.574-1.299-1.574-1.824v-5.896c0-1.27 1.074-1.591 1.574-1.591s1.574.306 1.574 1.591v5.896zM48.763 12.22c-2.678-2.656-7.416-2.496-7.416-2.496s-4.738-.161-7.416 2.496c-.28.277-.544.569-.78.876-5.621-4.32-10.668-6.786-15.023-8.917V1.158l-3.311 1.547C6.812-.52 1.721.049.5 2.72c0 0-3.664 4.787 9.093 16.17v10.756h8.52v-4.174a43.946 43.946 0 0 1-2.855-1.985 90.507 90.507 0 0 1-5.65-4.583V14.38c1.928 2.145 4.488 4.583 7.857 7.341l.662.525v-4.349c0-1.007.25-2.656 1.589-2.656s1.56 1.007 1.56 2.189v7.107a39.351 39.351 0 0 0 8.49 4.32V15.153c0-2.729-1.972-5.458-5.974-5.458a6.518 6.518 0 0 0-5.665 3.196V4.966c6.165 3.05 12.345 6.786 14.7 8.508-1.501 2.131-1.368 4.101-1.368 6.378 0 2.729-.206 5.006 2.472 7.662s7.416 2.496 7.416 2.496 4.753.16 7.416-2.496c2.678-2.656 2.457-4.933 2.457-7.662 0-2.7.221-4.991-2.457-7.633zM9.594 5.127v9.238C2.428 6.411 3.87 3.273 4.415 2.821c1.986-1.664 5.518-1.168 9.476.306L9.594 5.126zm33.327 17.586c0 .525-.265 1.824-1.574 1.824s-1.574-1.299-1.574-1.824v-5.896c0-1.27 1.074-1.591 1.574-1.591s1.574.306 1.574 1.591v5.896z" style="fill:var(--color7, #737373)"/>
    </symbol>
    <symbol id="icon-speed" viewBox="0 0 32 32">
      <path fill="#ff7b47" d="m29.815 10.365-1.999 3.006a13.007 13.007 0 0 1-.358 12.318H4.935A12.995 12.995 0 0 1 6.738 10.28a12.998 12.998 0 0 1 15.275-2.709l3.006-1.999A16.25 16.25 0 0 0 2.138 27.314a3.257 3.257 0 0 0 2.795 1.625h22.506a3.253 3.253 0 0 0 2.827-1.625 16.248 16.248 0 0 0-.439-16.965l-.016.016zM13.907 21.48a3.24 3.24 0 0 0 2.299.953 3.246 3.246 0 0 0 2.3-.953l9.197-13.796-13.796 9.197a3.26 3.26 0 0 0-.954 2.3 3.234 3.234 0 0 0 .954 2.299z" style="fill:var(--color8, #ff7b47)"/>
    </symbol>
    <symbol id="icon-medal" viewBox="0 0 33 32">
      <path fill="#0d5c63" d="M10.709 22.663c-.541-.543-.259-.39-1.563-.741-.592-.159-1.112-.466-1.582-.832l-2.823 6.952a1 1 0 0 0 .96 1.377l3.279-.126 2.255 2.393a.994.994 0 0 0 1.645-.31l3.239-7.976c-.675.377-1.423.599-2.197.599a4.5 4.5 0 0 1-3.211-1.336zm17.776 5.38-2.823-6.952c-.47.367-.991.673-1.582.832-1.311.353-1.024.199-1.563.741A4.506 4.506 0 0 1 19.305 24c-.774 0-1.523-.222-2.197-.599l3.239 7.976a.994.994 0 0 0 1.645.31l2.256-2.393 3.279.126a1 1 0 0 0 .96-1.377zm-7.454-6.794c.951-.972 1.06-.888 2.414-1.259a2.535 2.535 0 0 0 1.771-1.811c.465-1.775.345-1.561 1.615-2.859a2.6 2.6 0 0 0 .648-2.474c-.465-1.774-.465-1.526 0-3.302a2.604 2.604 0 0 0-.648-2.474c-1.27-1.299-1.149-1.085-1.615-2.859A2.533 2.533 0 0 0 23.445 2.4c-1.735-.476-1.526-.351-2.797-1.651a2.468 2.468 0 0 0-2.42-.663c-1.734.475-1.492.476-3.229 0a2.468 2.468 0 0 0-2.42.663c-1.27 1.299-1.061 1.175-2.796 1.651a2.535 2.535 0 0 0-1.771 1.811c-.465 1.774-.345 1.561-1.615 2.859a2.6 2.6 0 0 0-.648 2.474c.465 1.773.465 1.525 0 3.301a2.604 2.604 0 0 0 .648 2.474c1.27 1.299 1.149 1.084 1.615 2.859a2.533 2.533 0 0 0 1.771 1.811c1.393.381 1.496.321 2.413 1.259a2.464 2.464 0 0 0 3.095.364 2.465 2.465 0 0 1 2.646 0 2.463 2.463 0 0 0 3.094-.364zM10.743 10.996c0-3.314 2.628-6.001 5.87-6.001s5.87 2.687 5.87 6.001c0 3.314-2.628 6.001-5.87 6.001s-5.87-2.687-5.87-6.001z" style="fill:var(--color5, #0d5c63)"/>
    </symbol>
    <symbol id="icon-grafic" viewBox="0 0 33 32">
      <path fill="#0d5c63" d="M29.434 14.855a3.147 3.147 0 0 0-1.122.216l-3.827-3.19c.094-.348.161-.708.161-1.089 0-2.252-1.778-4.062-3.99-4.062s-3.99 1.81-3.99 4.062c0 .644.16 1.243.418 1.783l-4.642 5.587a3.327 3.327 0 0 0-.563-.057c-.286 0-.555.049-.817.12l-4.09-4.165a3.14 3.14 0 0 0 .12-.83c0-1.8-1.423-3.25-3.192-3.25S.708 11.429.708 13.23c0 1.8 1.423 3.25 3.192 3.25.286 0 .555-.049.817-.12l4.09 4.165c-.077.27-.117.549-.12.83 0 1.8 1.424 3.25 3.192 3.25s3.192-1.449 3.192-3.25c0-.385-.077-.747-.196-1.09l4.649-5.593c.362.107.737.184 1.133.184.63-.004 1.25-.16 1.808-.457l3.828 3.19c-.03.171-.047.343-.051.517 0 1.8 1.424 3.25 3.192 3.25s3.192-1.449 3.192-3.25c0-1.8-1.423-3.25-3.192-3.25z" style="fill:var(--color5, #0d5c63)"/>
    </symbol>
    <symbol id="icon-people" viewBox="0 0 33 32">
      <path  d="M16.56 15.202c2.869 0 5.101-2.33 5.101-5.19s-2.338-5.084-5.208-5.084-5.101 2.33-5.101 5.084c0 2.86 2.338 5.19 5.208 5.19zm-.106-8.156c.106 0 .106 0 0 0 1.7 0 3.082 1.377 3.082 3.072s-1.382 2.966-3.082 2.966-2.976-1.377-2.976-2.966c0-1.695 1.382-3.072 2.976-3.072zM32.289 14.566c-2.019-1.801-4.676-2.754-7.439-2.648H24c-.213.847-.531 1.589-.956 2.224.638-.106 1.169-.106 1.807-.106 2.019-.106 4.039.53 5.633 1.695v7.626h2.126v-8.474l-.319-.318zM22.406 5.139c.531-1.271 2.019-1.907 3.401-1.377 1.275.53 1.913 2.012 1.382 3.389-.425.953-1.382 1.589-2.338 1.589-.213 0-.531 0-.744-.106.106.53.106 1.059.106 1.483v.636c.213 0 .425.106.638.106 2.657 0 4.782-2.118 4.782-4.66 0-2.648-2.126-4.766-4.676-4.766-1.7 0-3.188.847-4.038 2.33.531.318 1.063.741 1.488 1.377zM10.29 14.248c-.425-.636-.744-1.377-.956-2.224h-.85a10.956 10.956 0 0 0-7.439 2.542l-.319.318v8.474h2.126v-7.626c1.7-1.165 3.613-1.801 5.633-1.695.638 0 1.275.106 1.807.212zM8.483 10.753c.213 0 .425 0 .638-.106v-.635c0-.53 0-1.059.106-1.483-.213.106-.531.106-.744.106-1.382 0-2.551-1.165-2.551-2.542s1.169-2.542 2.551-2.542c1.063 0 2.019.636 2.444 1.589.425-.53 1.063-1.059 1.594-1.483C11.139 1.433 8.27.691 6.038 2.068S3.062 6.305 4.444 8.529c.85 1.377 2.338 2.224 4.038 2.224zM25.275 20.921l-.213-.318c-2.126-2.33-5.101-3.707-8.29-3.601-3.188-.106-6.27 1.271-8.396 3.601l-.213.318v8.05c0 .953.744 1.801 1.807 1.801h13.603c.956 0 1.807-.847 1.807-1.801v-8.05h-.106zm-2.125 7.732H10.291v-6.991c1.7-1.695 4.038-2.542 6.483-2.542 2.338-.106 4.676.847 6.377 2.542v6.991z"/>
    </symbol>
    <symbol id="icon-window" viewBox="0 0 32 32">
      <path fill="#fff" d="M19.428 9.083h7.999v2.297h-7.999V9.083zM19.428 14.825h7.999v2.297h-7.999v-2.297zM19.428 20.567h7.999v2.297h-7.999v-2.297z" style="fill:var(--color6, #fff)"/>
      <path fill="#fff" d="M29.712 3.341H2.288c-.606.001-1.187.243-1.615.673S.004 5.028.003 5.637v20.672c.001.609.242 1.193.67 1.623s1.009.673 1.615.673h27.424c.606-.001 1.187-.243 1.615-.674s.669-1.014.67-1.623V5.636c-.001-.609-.242-1.193-.67-1.623s-1.009-.673-1.615-.673zM2.288 5.638h12.569V26.31H2.288V5.638zM17.142 26.31V5.638h12.569l.002 20.672H17.142z" style="fill:var(--color6, #fff)"/>
    </symbol>
    <symbol id="icon-shop" viewBox="0 0 32 32">
      <path fill="#0d5c63" d="M29.1 9.167H2.9c-.012 0-.02.008-.02.02v3.604c0 2.363 1.96 4.279 4.372 4.279a4.395 4.395 0 0 0 3.804-2.161.66.66 0 0 1 1.144 0A4.384 4.384 0 0 0 16 17.07a4.379 4.379 0 0 0 3.804-2.169.646.646 0 0 1 .556-.32h.024a.64.64 0 0 1 .556.32 4.39 4.39 0 0 0 3.808 2.169c2.412 0 4.372-1.916 4.372-4.279V9.187c0-.012-.008-.02-.02-.02z" opacity=".15" style="fill:var(--color5, #0d5c63)"/>
      <path fill="#0d5c63" d="M30.8 6.326V1.265A1.27 1.27 0 0 0 29.52.001H2.48A1.27 1.27 0 0 0 1.2 1.265v5.061A1.27 1.27 0 0 0 0 7.586v5.204a7.046 7.046 0 0 0 1.2 3.924v13.632c0 .695.572 1.264 1.28 1.264h27.04a1.27 1.27 0 0 0 1.28-1.264V16.714c.244-.36.453-.743.624-1.142A6.99 6.99 0 0 0 32 12.79V7.586a1.27 1.27 0 0 0-1.2-1.26zM4.08 2.845h23.84v3.477H4.08V2.845zm14.48 25.924h-5.12v-4.113h5.12v4.113zm9.376 0H21.12v-5.378a1.27 1.27 0 0 0-1.28-1.264h-7.68a1.27 1.27 0 0 0-1.28 1.264v5.378h-6.8v-9.57c.116.055.236.111.36.158.892.371 1.84.557 2.816.557a7.31 7.31 0 0 0 4.364-1.43.025.025 0 0 1 .024 0c.477.353.997.646 1.548.873.892.371 1.84.557 2.816.557a7.31 7.31 0 0 0 4.364-1.43.025.025 0 0 1 .024 0c.477.353.997.646 1.548.873.892.371 1.84.557 2.816.557a7.31 7.31 0 0 0 3.176-.715v9.57zM29.12 12.79c0 2.363-1.96 4.279-4.372 4.279A4.39 4.39 0 0 1 20.94 14.9a.64.64 0 0 0-.556-.32h-.024a.646.646 0 0 0-.556.32c-.384.661-.938 1.21-1.606 1.591s-1.427.58-2.198.578a4.384 4.384 0 0 1-3.8-2.161.66.66 0 0 0-1.144 0c-.386.659-.941 1.205-1.609 1.585s-1.425.578-2.195.577c-2.412 0-4.372-1.916-4.372-4.279V9.188c0-.012.008-.02.02-.02h26.2c.012 0 .02.008.02.02v3.603z" style="fill:var(--color5, #0d5c63)"/>
    </symbol>
    <symbol id="icon-case" viewBox="0 0 32 32">
      <path fill="#0d5c63" d="M28.392 8.35h-3.38V4.97a2.257 2.257 0 0 0-2.253-2.253H9.24A2.257 2.257 0 0 0 6.987 4.97v3.38h-3.38a3.38 3.38 0 0 0-3.38 3.38v15.772a2.257 2.257 0 0 0 2.253 2.253h27.038a2.257 2.257 0 0 0 2.253-2.253V11.73a3.38 3.38 0 0 0-3.38-3.38zM9.241 4.971H22.76v3.38H9.241v-3.38zm20.278 22.531H2.481V17.363h9.013v5.633h9.013v-5.633h9.013v10.139zM13.747 17.363h4.506v3.38h-4.506v-3.38zM2.481 15.11v-3.38a1.13 1.13 0 0 1 1.127-1.127h24.785a1.13 1.13 0 0 1 1.127 1.127v3.38H2.482z" style="fill:var(--color5, #0d5c63)"/>
    </symbol>
  </defs>
</svg>
